/* XPM */
static char *back_xpm[] = {
/* width height num_colors chars_per_pixel */
"    64    64       58            1",
/* colors */
". c #010103",
"# c #818183",
"a c #414143",
"b c #c1c1c3",
"c c #a1a1a3",
"d c #616163",
"e c #919193",
"f c #515153",
"g c #b1b1b3",
"h c #717173",
"i c #29292b",
"j c #fdfdfb",
"k c #cdcdcb",
"l c #353533",
"m c #89898b",
"n c #49494b",
"o c #a9a9ab",
"p c #69696b",
"q c #99999b",
"r c #59595b",
"s c #b9b9bb",
"t c #79797b",
"u c #bdbdbb",
"v c #c9c9cb",
"w c #3d3d3b",
"x c #313133",
"y c #7d7d7b",
"z c #d1d1d3",
"A c #39393b",
"B c #858583",
"C c #454543",
"D c #c5c5c3",
"E c #a5a5a3",
"F c #656563",
"G c #959593",
"H c #555553",
"I c #b5b5b3",
"J c #757573",
"K c #8d8d8b",
"L c #4d4d4b",
"M c #adadab",
"N c #6d6d6b",
"O c #9d9d9b",
"P c #5d5d5b",
"Q c #ff8080",
"R c #10a0a0",
"S c #e0e0e0",
"T c #a040f0",
"U c #9090ff",
"V x #7fff7f",
"W c #7f7f00",
"X c #ffffff",
"Y c #A0A0A0",
"Z c #A00000",
"1 c #505050",
"2 c #40B040",
"3 c #A59045",
"4 c #7B5612",
/* pixels */
"qqqqqqqqqqqqqqqOOOOOOccccccEEEEEEEooooooMMMMMMggggggIIIIIIIIsssN",
"OOOOOOOOOOOOOOOqOOOccOOcccEcEEEEEoEEoooMoMMgggMgggIIgIIIssubbDGC",
"qqxxxxxxxxxxxlAAAwwwaaaCnnLLLffffHrHrPPddddFpppNNNNhhJJJttyyy#AC",
"qqxxxlllllllAAAAwwaaaCCnnnLLfffHHrHPPPdddFpppNNNhhJJhJtttyy#BBwC",
"OqllxlllllAAwwwaaaCCCnnnLLfffHrrrPrPdddFpFpppNNhhhhtJttyy##BBBaC",
"OOxll.....................................................iBBman",
"OOxll.QRSTUVWXYZ1234iiiiiiiiiiiiiiiiiiiiiiiiiiiiiiiiiiiiiijmmman",
"Oqxll.QRSTUVWXYZ1234iiiiiiiiiiiiiiiiiiiiiiiiiiiiiiiiiiiiiijmmKCC",
"OOxxl.QRSTUVWXYZ1234iiiiiiiiiiiiiiiiiiiiiiiiiiiiiiiiiiiiiijKmKCn",
"OOxll.QRSTUVWXYZ1234iiiiiiiiiiiiiiiiiiiiiiiiiiiiiiiiiiiiiijKKKnn",
"OOxxl.QRSTUVWXYZ1234iiiiiiiiiiiiiiiiiiiiiiiiiiiiiiiiiiiiiijKeenn",
"OclAA.QRSTUVWXYZ1234iiiiiiiiiiiiiiiiiiiiiiiiiiiiiiiiiiiiiijeeeCL",
"OOxAA.QRSTUVWXYZ1234iiiiiiiiiiiiiiiiiiiiiiiiiiiiiiiiiiiiiijeeGnL",
"OOAAw.QRSTUVWXYZ1234iiiiiiiiiiiiiiiiiiiiiiiiiiiiiiiiiiiiiijeGGnn",
"ccAAw.QRSTUVWXYZ1234iiiiiiiiiiiiiiiiiiiiiiiiiiiiiiiiiiiiiijeGGnL",
"ccAww.QRSTUVWXYZ1234iiiiiiiiiiiiiiiiiiiiiiiiiiiiiiiiiiiiiijqGqLL",
"ccAwa.QRSTUVWXYZ1234iiiiiiiiiiiiiiiiiiiiiiiiiiiiiiiiiiiiiijGGGLL",
"EEwwa.QRSTUVWXYZ1234iiiiiiiiiiiiiiiiiiiiiiiiiiiiiiiiiiiiiijqqOnL",
"Ecwaa.QRSTUVWXYZ1234iiiiiiiiiiiiiiiiiiiiiiiiiiiiiiiiiiiiiijGOOLf",
"EEaaC.QRSTUVWXYZ1234iiiiiiiiiiiiiiiiiiiiiiiiiiiiiiiiiiiiiijOqOLL",
"EEwaC.QRSTUVWXYZ1234iiiiiiiiiiiiiiiiiiiiiiiiiiiiiiiiiiiiiijOOcff",
"ooaCC.QRSTUVWXYZ1234iiiiiiiiiiiiiiiiiiiiiiiiiiiiiiiiiiiiiijOccLf",
"EoaCn.QRSTUVWXYZ1234iiiiiiiiiiiiiiiiiiiiiiiiiiiiiiiiiiiiiijOcEff",
"ooCnn.QRSTUVWXYZ1234iiiiiiiiiiiiiiiiiiiiiiiiiiiiiiiiiiiiiijEccff",
"ooCnL.QRSTUVWXYZ1234iiiiiiiiiiiiiiiiiiiiiiiiiiiiiiiiiiiiiijcEEfH",
"oMnLL.QRSTUVWXYZ1234iiiiiiiiiiiiiiiiiiiiiiiiiiiiiiiiiiiiiijEEEHf",
"MMnLL.QRSTUVWXYZ1234iiiiiiiiiiiiiiiiiiiiiiiiiiiiiiiiiiiiiijEEEHH",
"MMLLH.QRSTUVWXYZ1234iiiiiiiiiiiiiiiiiiiiiiiiiiiiiiiiiiiiiijEoMfH",
"MMLLf.QRSTUVWXYZ1234iiiiiiiiiiiiiiiiiiiiiiiiiiiiiiiiiiiiiijooMHH",
"ggffH.QRSTUVWXYZ1234iiiiiiiiiiiiiiiiiiiiiiiiiiiiiiiiiiiiiijMMMfH",
"MgffH.QRSTUVWXYZ1234iiiiiiiiiiiiiiiiiiiiiiiiiiiiiiiiiiiiiijoMgHH",
"gMfHr.QRSTUVWXYZ1234iiiiiiiiiiiiiiiiiiiiiiiiiiiiiiiiiiiiiijgMgrr",
"ggHHr.QRSTUVWXYZ1234iiiiiiiiiiiiiiiiiiiiiiiiiiiiiiiiiiiiiijgggHr",
"ggHHr.QRSTUVWXYZ1234iiiiiiiiiiiiiiiiiiiiiiiiiiiiiiiiiiiiiijgggrr",
"IgHrP.QRSTUVWXYZ1234iiiiiiiiiiiiiiiiiiiiiiiiiiiiiiiiiiiiiijIIIHr",
"gIrrP.QRSTUVWXYZ1234iiiiiiiiiiiiiiiiiiiiiiiiiiiiiiiiiiiiiijIIIrr",
"IIrPd.QRSTUVWXYZ1234iiiiiiiiiiiiiiiiiiiiiiiiiiiiiiiiiiiiiijsIsrr",
"IIPPd.QRSTUVWXYZ1234iiiiiiiiiiiiiiiiiiiiiiiiiiiiiiiiiiiiiijIssrP",
"IIPdd.QRSTUVWXYZ1234iiiiiiiiiiiiiiiiiiiiiiiiiiiiiiiiiiiiiijusurP",
"ssddF.QRSTUVWXYZ1234iiiiiiiiiiiiiiiiiiiiiiiiiiiiiiiiiiiiiijsuuPP",
"ssPdF.QRSTUVWXYZ1234iiiiiiiiiiiiiiiiiiiiiiiiiiiiiiiiiiiiiijuuurP",
"ssFFp.QRSTUVWXYZ1234iiiiiiiiiiiiiiiiiiiiiiiiiiiiiiiiiiiiiijuubPP",
"usFFp.QRSTUVWXYZ1234iiiiiiiiiiiiiiiiiiiiiiiiiiiiiiiiiiiiiijbDDPd",
"suFpp.QRSTUVWXYZ1234iiiiiiiiiiiiiiiiiiiiiiiiiiiiiiiiiiiiiijbDDdP",
"uuFpN.QRSTUVWXYZ1234iiiiiiiiiiiiiiiiiiiiiiiiiiiiiiiiiiiiiijbDvdd",
"uupNN.QRSTUVWXYZ1234iiiiiiiiiiiiiiiiiiiiiiiiiiiiiiiiiiiiiijvvvdd",
"bbppN.QRSTUVWXYZ1234iiiiiiiiiiiiiiiiiiiiiiiiiiiiiiiiiiiiiijDvvdd",
"uuNhh.QRSTUVWXYZ1234iiiiiiiiiiiiiiiiiiiiiiiiiiiiiiiiiiiiiijvkzFF",
"buNNh.QRSTUVWXYZ1234iiiiiiiiiiiiiiiiiiiiiiiiiiiiiiiiiiiiiijkkkdd",
"bDNhh.QRSTUVWXYZ1234iiiiiiiiiiiiiiiiiiiiiiiiiiiiiiiiiiiiiijkzzdF",
"bbhhJ.QRSTUVWXYZ1234iiiiiiiiiiiiiiiiiiiiiiiiiiiiiiiiiiiiiijzkzdd",
"bbNJJ.QRSTUVWXYZ1234iiiiiiiiiiiiiiiiiiiiiiiiiiiiiiiiiiiiiijkzkdF",
"DDhJJ.QRSTUVWXYZ1234iiiiiiiiiiiiiiiiiiiiiiiiiiiiiiiiiiiiiijkzzdd",
"bDJJt.QRSTUVWXYZ1234iiiiiiiiiiiiiiiiiiiiiiiiiiiiiiiiiiiiiijzkkdF",
"bDJJt.QRSTUVWXYZ1234iiiiiiiiiiiiiiiiiiiiiiiiiiiiiiiiiiiiiijzzzdd",
"DDJtt.QRSTUVWXYZ1234iiiiiiiiiiiiiiiiiiiiiiiiiiiiiiiiiiiiiijkkkdF",
"DDtyy.QRSTUVWXYZ1234iiiiiiiiiiiiiiiiiiiiiiiiiiiiiiiiiiiiiijzzzdd",
"Dvty#.QRSTUVWXYZ1234iiiiiiiiiiiiiiiiiiiiiiiiiiiiiiiiiiiiiijzkkdF",
"vvy##ijjjjjjjjjjjjjjjjjjjjjjjjjjjjjjjjjjjjjjjjjjjjjjjjjjjjjzzzdd",
"vvy#BBmmmmmKeeGGGGGGGqqOOccEoMMMgggMggIIIsubbbDDvkkkvvvvkkkkkkdF",
"vk#BBBmmKKeeGGGGGGOOOcEccEEEMMMMgIIIssuuuubDvvkkkzkzzzzzzzzzzzdd",
"kk##mmmKKKKeeGGGqOqOOccEEEoMoMMgggIIsssuuDDDDvvkzkzkkkkkkkkkkkdF",
"vGxxllllAAAAAAwAwawaaaaCCCCnnnnLLLfLfffHfHHrrPPPPPPPPddddddddddd",
"GxlxlllllAAAAwwwwwaaaCCCCCnCnnLnLLLLffffHHHrrrPrPPPddPPPPddddddF"
};
